<svg width="42" height="42" viewBox="0 0 42 42" fill="none" xmlns="http://www.w3.org/2000/svg">
<path d="M20.9839 42C16.8312 41.9968 12.7727 40.7624 9.32136 38.453C5.87007 36.1435 3.18081 32.8626 1.59386 29.0251C0.00691509 25.1876 -0.406616 20.9657 0.405506 16.8931C1.21763 12.8206 3.21902 9.08031 6.15657 6.14503C9.09411 3.20976 12.8359 1.21131 16.9091 0.402341C20.9822 -0.406634 25.2038 0.0101506 29.0401 1.60007C32.8764 3.18998 36.1553 5.88163 38.4621 9.33471C40.7689 12.7878 42 16.8473 42 21C41.9957 26.5711 39.7796 31.9124 35.8387 35.8502C31.8979 39.788 26.5549 42 20.9839 42ZM20.9839 3.24824C17.4736 3.25145 14.043 4.29534 11.1259 6.24788C8.20878 8.20042 5.93599 10.974 4.59489 14.218C3.2538 17.4619 2.90452 21.0307 3.59131 24.4731C4.2781 27.9156 5.97012 31.0771 8.45339 33.5581C10.9367 36.0391 14.0999 37.7282 17.5429 38.4118C20.986 39.0955 24.5542 38.743 27.797 37.3989C31.0398 36.0549 33.8114 33.7795 35.7612 30.8606C37.7111 27.9417 38.7517 24.5103 38.7517 21C38.7474 16.2905 36.8736 11.7753 33.5419 8.44666C30.2103 5.11803 25.6934 3.24823 20.9839 3.24824Z" fill="white"/>
<path d="M14.6664 29C14.3373 29.0019 14.0151 28.9058 13.7409 28.7238C13.4666 28.5419 13.2528 28.2824 13.1266 27.9784C13.0004 27.6744 12.9676 27.3397 13.0324 27.017C13.0971 26.6943 13.2564 26.3982 13.4901 26.1665L26.1655 13.4901C26.3196 13.3348 26.5028 13.2116 26.7048 13.1274C26.9067 13.0433 27.1231 13 27.3419 13C27.5606 13 27.7771 13.0433 27.979 13.1274C28.1809 13.2116 28.3642 13.3348 28.5182 13.4901C28.8268 13.8006 29 14.2206 29 14.6583C29 15.0961 28.8268 15.5161 28.5182 15.8265L15.8264 28.5194C15.5178 28.8255 15.1011 28.9981 14.6664 29Z" fill="#FA4776"/>
<path d="M27.3249 29C27.1057 29.0012 26.8883 28.9592 26.6854 28.8763C26.4825 28.7933 26.298 28.6711 26.1424 28.5166L13.4006 15.7506C13.1277 15.4318 12.9851 15.0217 13.0012 14.6022C13.0174 14.1828 13.1912 13.7849 13.4878 13.4881C13.7844 13.1913 14.1822 13.0174 14.6014 13.0012C15.0206 12.985 15.4305 13.1277 15.7491 13.4007L28.5074 26.1501C28.6635 26.3051 28.7873 26.4894 28.8719 26.6924C28.9565 26.8955 29 27.1134 29 27.3334C29 27.5534 28.9565 27.7712 28.8719 27.9743C28.7873 28.1774 28.6635 28.3617 28.5074 28.5166C28.3517 28.6711 28.1672 28.7933 27.9643 28.8763C27.7614 28.9592 27.5441 29.0012 27.3249 29Z" fill="#FA4776"/>
</svg>
