<svg width="13" height="21" viewBox="0 0 13 21" fill="none" xmlns="http://www.w3.org/2000/svg">
<path d="M12.4227 20.4475C12.6057 20.2735 12.7509 20.0668 12.8499 19.8393C12.949 19.6118 13 19.3679 13 19.1216C13 18.8753 12.949 18.6314 12.8499 18.4038C12.7509 18.1763 12.6057 17.9697 12.4227 17.7957L4.76269 10.4984L12.4227 3.20107C12.7918 2.84941 12.9992 2.37246 12.9992 1.87514C12.9992 1.37783 12.7918 0.900872 12.4227 0.549214C12.0535 0.197557 11.5529 1.07049e-06 11.0308 1.07049e-06C10.5088 1.07049e-06 10.0081 0.197557 9.63901 0.549214L0.577347 9.18184C0.39433 9.35583 0.249131 9.56251 0.150062 9.79003C0.0509929 10.0175 3.63e-07 10.2614 3.63e-07 10.5078C3.63e-07 10.7541 0.0509929 10.998 0.150062 11.2255C0.249131 11.453 0.39433 11.6597 0.577347 11.8337L9.63901 20.4663C10.3892 21.181 11.6527 21.181 12.4227 20.4475Z" fill="white"/>
</svg>
