<svg width="187" height="30" viewBox="0 0 187 30" fill="none" xmlns="http://www.w3.org/2000/svg">
<g filter="url(#filter0_i_1_45)">
<path d="M8.64033 2.63667V3.09L10.3611 4.45L1.68413 27.5167L0 28.8767V29.3033H10.5807V28.8767L8.89661 27.5167L9.22612 26.6633L18.9648 21.7567L21.015 27.5167L19.2943 28.8767V29.3033H29.875V28.8767L28.1909 27.5167L20.0265 4.45L21.7107 3.09V2.63667H8.64033ZM15.1206 10.93L17.0976 16.53L12.0818 19.0633L15.1206 10.93Z" fill="#FA4776"/>
<path d="M33.5439 6.21V6.63667L35.2281 7.99667V25.9433L33.5439 27.2767V27.73H43.8684V27.2767L42.1843 25.9433V21.73L54.0464 15.7567L54.083 8.69L49.2137 6.21H33.5439ZM42.1843 11.2767H45.9552L47.1268 11.8633V13.09L42.1843 15.57V11.2767Z" fill="#FA4776"/>
<path d="M59.4366 6.21V6.63667L61.1207 7.99667V25.9167L59.4366 27.2767V27.7033H68.0769V16.6633L76.461 27.7033H85.1379V27.2767L83.4172 25.9167V7.99667L85.1379 6.63667V6.21H76.461V17.25L68.1135 6.21H59.4366Z" fill="#FA4776"/>
<path d="M95.4973 6.21V6.63667L97.218 7.99667L90.4815 25.9167L88.7974 27.2767V27.7033H99.3781V27.2767L97.694 25.9167L97.9869 25.1167L106.261 20.93L108.055 25.9167L106.334 27.2767V27.7033H116.915V27.2767L115.231 25.9167L108.897 7.99667L110.581 6.63667V6.21H95.4973ZM103.003 11.73L104.43 15.7033L100.843 17.5167L103.003 11.73Z" fill="#FA4776"/>
<path d="M120.804 0V7.08H121.463L123.563 5.7H130.936V27.99L129.041 29.49V30H140.698V29.49L138.762 27.99V5.7H146.176L148.276 7.08H148.935V0H120.804Z" fill="#FA4776"/>
<path d="M153.07 0V0.479999L154.965 2.01L165.468 30H174.9L184.785 2.01L186.68 0.479999V0H174.777V0.479999L176.712 2.01L170.081 20.67L163.079 2.01L164.974 0.479999V0H153.07Z" fill="#FA4776"/>
</g>
<defs>
<filter id="filter0_i_1_45" x="0" y="0" width="186.68" height="34" filterUnits="userSpaceOnUse" color-interpolation-filters="sRGB">
<feFlood flood-opacity="0" result="BackgroundImageFix"/>
<feBlend mode="normal" in="SourceGraphic" in2="BackgroundImageFix" result="shape"/>
<feColorMatrix in="SourceAlpha" type="matrix" values="0 0 0 0 0 0 0 0 0 0 0 0 0 0 0 0 0 0 127 0" result="hardAlpha"/>
<feOffset dy="4"/>
<feGaussianBlur stdDeviation="2"/>
<feComposite in2="hardAlpha" operator="arithmetic" k2="-1" k3="1"/>
<feColorMatrix type="matrix" values="0 0 0 0 0 0 0 0 0 0 0 0 0 0 0 0 0 0 0.35 0"/>
<feBlend mode="normal" in2="shape" result="effect1_innerShadow_1_45"/>
</filter>
</defs>
</svg>
