<svg width="13" height="21" viewBox="0 0 13 21" fill="none" xmlns="http://www.w3.org/2000/svg">
<path d="M0.577349 0.552492C0.394332 0.726487 0.249133 0.93316 0.150064 1.16068C0.0509944 1.3882 0 1.6321 0 1.87842C0 2.12474 0.0509944 2.36864 0.150064 2.59616C0.249133 2.82368 0.394332 3.03035 0.577349 3.20434L8.23731 10.5016L0.577349 17.7989C0.208214 18.1506 0.000835946 18.6275 0.000835946 19.1249C0.000835946 19.6222 0.208214 20.0991 0.577349 20.4508C0.946483 20.8024 1.44714 21 1.96917 21C2.49121 21 2.99186 20.8024 3.36099 20.4508L12.4227 11.8182C12.6057 11.6442 12.7509 11.4375 12.8499 11.21C12.949 10.9825 13 10.7386 13 10.4922C13 10.2459 12.949 10.002 12.8499 9.7745C12.7509 9.54698 12.6057 9.3403 12.4227 9.16631L3.36099 0.533684C2.61079 -0.180999 1.34729 -0.180999 0.577349 0.552492Z" fill="#FA4776"/>
</svg>
