<svg width="10" height="5" viewBox="0 0 10 5" fill="none" xmlns="http://www.w3.org/2000/svg">
<path d="M4.98332 4.28571C4.65598 4.2859 4.33932 4.1769 4.09022 3.97833L0.167008 0.904532C0.0674506 0.814514 0.00806246 0.692581 0.000762251 0.56327C-0.00653796 0.433959 0.0388104 0.306864 0.127679 0.207546C0.216548 0.108228 0.342347 0.044059 0.479769 0.0279489C0.61719 0.0118388 0.756034 0.0449847 0.868378 0.120714L4.79156 3.19451C4.84508 3.2371 4.91305 3.26049 4.98332 3.26049C5.0536 3.26049 5.1216 3.2371 5.17512 3.19451L9.0983 0.120714C9.20947 0.0330778 9.35333 -0.00968128 9.49822 0.00184771C9.6431 0.0133767 9.77717 0.0782468 9.87091 0.182188C9.96464 0.286128 10.0104 0.420628 9.99802 0.556094C9.98569 0.69156 9.91633 0.816896 9.80516 0.904532L5.88194 3.97833C5.6302 4.1761 5.31213 4.2849 4.98332 4.28571Z" fill="white"/>
</svg>
